HIERARCHY
ROOT SpineBase
{
  OFFSET 0.000000 0.000000 0.000000
  CHANNELS 6 Xposition Yposition Zposition Zrotation Xrotation Yrotation
  JOINT SpineMid
  {
    OFFSET 0.000000 29.351288 0.000000
    CHANNELS 3 Zrotation Xrotation Yrotation
    JOINT SpineShoulder
    {
      OFFSET -0.061803 21.784024 -0.626629
      CHANNELS 3 Zrotation Xrotation Yrotation
      JOINT Neck
      {
        OFFSET -0.045979 7.207478 -0.503383
        CHANNELS 3 Zrotation Xrotation Yrotation
        JOINT Head
        {
          OFFSET 2.842286 13.649942 -2.023556
          CHANNELS 3 Zrotation Xrotation Yrotation
          End Site
          {
            OFFSET 0 0 0
          }
        }
      }
      JOINT ShoulderLeft
      {
        OFFSET -15.139793 -3.265790 -6.120837
        CHANNELS 3 Zrotation Xrotation Yrotation
        JOINT ElbowLeft
        {
          OFFSET -2.093124 -21.703869 -3.774303
          CHANNELS 3 Zrotation Xrotation Yrotation
          JOINT WristLeft
          {
            OFFSET 10.385056 -17.205858 -6.712183
            CHANNELS 3 Zrotation Xrotation Yrotation
            JOINT HandLeft
            {
              OFFSET 5.810426 -2.598713 1.187186
              CHANNELS 3 Zrotation Xrotation Yrotation
              JOINT HandTipLeft
              {
                OFFSET 2.873309 -2.791628 -0.570409
                CHANNELS 3 Zrotation Xrotation Yrotation
                End Site
                {
                  OFFSET 0 0 0
                }
              }
              JOINT ThumbLeft
              {
                OFFSET -2.265700 -0.564317 0.509787
                CHANNELS 3 Zrotation Xrotation Yrotation
                End Site
                {
                  OFFSET 0 0 0
                }
              }
            }
          }
        }
      }
      JOINT ShoulderRight
      {
        OFFSET 16.485647 -4.464207 2.981666
        CHANNELS 3 Zrotation Xrotation Yrotation
        JOINT ElbowRight
        {
          OFFSET 1.410348 -20.906014 -1.344694
          CHANNELS 3 Zrotation Xrotation Yrotation
          JOINT WristRight
          {
            OFFSET -10.161986 -15.717820 -16.122368
            CHANNELS 3 Zrotation Xrotation Yrotation
            JOINT HandRight
            {
              OFFSET -4.968152 -1.841148 -1.526958
              CHANNELS 3 Zrotation Xrotation Yrotation
              JOINT HandTipRight
              {
                OFFSET -2.804053 -1.668722 -1.101048
                CHANNELS 3 Zrotation Xrotation Yrotation
                End Site
                {
                  OFFSET 0 0 0
                }
              }
              JOINT ThumbRight
              {
                OFFSET -2.561708 2.711557 -1.514850
                CHANNELS 3 Zrotation Xrotation Yrotation
                End Site
                {
                  OFFSET 0 0 0
                }
              }
            }
          }
        }
      }
    }
  }
  JOINT HipLeft
  {
    OFFSET -6.809680 1.311260 -4.835329
    CHANNELS 3 Zrotation Xrotation Yrotation
    JOINT KneeLeft
    {
      OFFSET -7.468374 -29.660308 -3.279481
      CHANNELS 3 Zrotation Xrotation Yrotation
      JOINT AnkleLeft
      {
        OFFSET -7.337310 -39.605890 3.362073
        CHANNELS 3 Zrotation Xrotation Yrotation
        JOINT FootLeft
        {
          OFFSET 0.611396 0.419424 -10.718865
          CHANNELS 3 Zrotation Xrotation Yrotation
          End Site
          {
            OFFSET 0 0 0
          }
        }
      }
    }
  }
  JOINT HipRight
  {
    OFFSET 6.111259 -0.153052 -1.813431
    CHANNELS 3 Zrotation Xrotation Yrotation
    JOINT KneeRight
    {
      OFFSET -1.137967 -28.370615 6.538889
      CHANNELS 3 Zrotation Xrotation Yrotation
      JOINT AnkleRight
      {
        OFFSET -5.140445 -38.932586 8.811881
        CHANNELS 3 Zrotation Xrotation Yrotation
        JOINT FootRight
        {
          OFFSET 3.913343 -0.061982 -9.403942
          CHANNELS 3 Zrotation Xrotation Yrotation
          End Site
          {
            OFFSET 0 0 0
          }
        }
      }
    }
  }
}
MOTION
Frames: 10
Frame Time: 0.033333
27.442661 63.065164 391.756441 7.279496 -35.681337 -5.904152 0.416223 -0.793428 8.293397 0.140606 -0.265522 0.121197 -2.840073 26.174744 2.577212 0.000000 0.000000 0.000000 -3.849283 3.839792 3.878126 17.856194 32.506944 -17.840377 -39.678040 1.469024 9.684484 47.282469 0.592405 2.067941 0.000000 0.000000 0.000000 0.000000 0.000000 0.000000 -0.095478 5.669361 -3.177500 -9.007227 30.735348 5.119096 15.498521 -3.858333 -3.292663 -7.496177 5.459605 -6.472218 0.000000 0.000000 0.000000 0.000000 0.000000 0.000000 -22.286083 61.892347 12.160458 0.285864 -29.869243 6.945159 1.642698 -24.036830 4.496146 0.000000 0.000000 0.000000 19.494630 53.518430 -5.837559 -24.282613 -23.338014 -6.629090 4.768251 24.231633 2.022113 0.000000 0.000000 0.000000
25.786472 64.196018 391.877948 9.854597 -39.407261 -1.918668 0.389596 -0.572978 5.520467 0.332188 -0.277932 0.136874 -5.255106 29.876128 3.236249 0.000000 0.000000 0.000000 -2.616835 7.348007 2.467305 11.270652 32.220364 -14.830410 -44.106588 4.369872 20.113686 54.651150 -7.919951 -0.713148 0.000000 0.000000 0.000000 0.000000 0.000000 0.000000 -4.145795 8.791521 -1.797627 -3.919617 28.408168 2.703672 11.909379 1.657037 -12.174707 -6.162413 2.148989 1.677836 0.000000 0.000000 0.000000 0.000000 0.000000 0.000000 -16.996358 67.707333 4.909920 -0.304433 -32.358457 8.207323 -0.200541 -14.291413 1.793749 0.000000 0.000000 0.000000 23.177597 55.563349 -12.421184 -23.443722 -24.346492 -5.760030 2.421437 23.312311 1.818490 0.000000 0.000000 0.000000
24.094733 65.061502 391.551270 11.381587 -42.096932 -2.853509 0.662197 -0.692379 7.261468 0.265540 -0.178172 0.186340 -5.487193 33.239367 3.026941 0.000000 0.000000 0.000000 -1.331953 9.578559 1.227477 6.614948 32.264015 -12.824779 -47.997297 5.699973 28.110078 55.382419 -14.419769 -2.680018 0.000000 0.000000 0.000000 0.000000 0.000000 0.000000 -8.427845 12.236743 0.288602 2.053330 24.803105 0.294837 10.313677 7.134130 -23.237291 -4.254232 -1.024444 10.907111 0.000000 0.000000 0.000000 0.000000 0.000000 0.000000 -18.919183 70.229578 6.749034 -1.551075 -33.267274 8.713937 -1.297512 -15.261560 1.447738 0.000000 0.000000 0.000000 20.688938 58.108546 -10.731102 -21.497260 -25.236739 -4.342970 -0.042722 23.355202 1.940779 0.000000 0.000000 0.000000
22.720329 65.726931 391.389741 13.005000 -44.725264 -3.583720 0.492128 -0.572043 9.036247 -0.095973 0.184888 0.297229 -4.105680 35.620101 2.187849 0.000000 0.000000 0.000000 -0.486880 11.339579 0.444898 3.929955 32.029360 -11.743664 -48.193806 6.255949 29.921922 56.374240 -15.909007 -3.109975 0.000000 0.000000 0.000000 0.000000 0.000000 0.000000 -7.676754 12.319738 -0.220497 -1.048624 29.422914 1.430649 12.528272 3.646586 -20.099083 -6.243481 0.019965 8.306203 0.000000 0.000000 0.000000 0.000000 0.000000 0.000000 -24.052313 72.977567 11.204344 -1.118260 -35.082314 10.067731 -1.731520 5.980234 -1.133531 0.000000 0.000000 0.000000 17.322124 60.888028 -8.510077 -18.943017 -26.325485 -2.718446 -1.975668 25.077096 2.889237 0.000000 0.000000 0.000000
21.394232 65.806377 390.437109 13.158725 -45.628025 -7.534392 0.600359 -0.304148 13.100306 -0.259039 0.293909 0.348761 -2.386172 37.223318 0.977275 0.000000 0.000000 0.000000 -0.514449 10.877565 0.641009 3.366706 32.424644 -11.786192 -44.900931 6.565584 26.428352 54.289229 -11.964160 -2.079351 0.000000 0.000000 0.000000 0.000000 0.000000 0.000000 -6.887930 12.548475 -0.660510 -3.768292 32.151746 2.574725 15.573055 -0.838834 -13.229995 -9.732304 2.464595 2.909716 0.000000 0.000000 0.000000 0.000000 0.000000 0.000000 -32.904531 71.786466 20.973117 -1.208713 -35.370723 10.624635 -0.753691 24.536160 -4.312745 0.000000 0.000000 0.000000 9.854093 61.792519 -0.124516 -16.106786 -26.370113 -0.965550 -3.361429 28.034918 3.010404 0.000000 0.000000 0.000000
20.181827 64.829204 388.040074 12.716672 -44.370598 -12.391280 0.256448 -0.407928 17.761190 -0.454150 0.546850 0.370571 3.784067 35.411144 -1.967549 0.000000 0.000000 0.000000 0.747143 9.555956 0.145768 2.133941 31.937882 -11.144359 -44.506049 6.851299 26.730466 54.393298 -11.976462 -2.069943 0.000000 0.000000 0.000000 0.000000 0.000000 0.000000 -8.785404 15.119439 0.759926 -1.018722 29.186785 1.303147 18.594823 -3.073526 -11.386834 -15.049665 3.581715 2.794601 0.000000 0.000000 0.000000 0.000000 0.000000 0.000000 -36.539996 66.925619 26.635015 -1.113782 -33.923469 10.709993 -1.425470 25.879653 -5.630130 0.000000 0.000000 0.000000 3.619671 57.056731 9.329340 -12.887193 -21.773081 0.567272 -6.314716 29.685048 6.698350 0.000000 0.000000 0.000000
18.583431 63.500049 385.917991 11.830728 -42.759593 -16.490607 -0.159111 -0.508183 21.449244 -0.711227 0.766537 0.399363 6.983797 34.004346 -3.258987 0.000000 0.000000 0.000000 0.683497 8.898417 0.545099 3.891484 30.725713 -11.715585 -44.710606 6.731965 26.643419 54.459758 -11.988969 -2.067135 0.000000 0.000000 0.000000 0.000000 0.000000 0.000000 -12.168915 20.258340 3.413365 3.535878 22.936965 -0.439435 22.236070 -5.134469 -10.730790 -22.460647 4.271564 4.636800 0.000000 0.000000 0.000000 0.000000 0.000000 0.000000 -34.374253 63.134846 27.263919 -2.539278 -32.443524 10.357042 -3.494738 14.196275 -8.382288 0.000000 0.000000 0.000000 3.493486 51.957010 14.041981 -10.450547 -14.778197 0.847032 -8.779519 33.422111 11.532812 0.000000 0.000000 0.000000
17.272517 62.513112 383.298806 11.311080 -40.249577 -19.239912 -0.401796 -0.709748 23.814286 -0.718546 0.920165 0.365669 7.227958 31.812160 -2.970709 0.000000 0.000000 0.000000 0.581793 7.850074 0.683155 3.630547 28.628628 -11.289793 -44.227698 7.143109 27.150540 54.513404 -11.998211 -2.064268 0.000000 0.000000 0.000000 0.000000 0.000000 0.000000 -17.534012 25.815482 7.230342 8.688993 14.428559 -1.681207 26.082067 -6.625380 -11.251107 -32.007157 4.196443 8.094566 0.000000 0.000000 0.000000 0.000000 0.000000 0.000000 -28.920265 57.535852 25.336979 -3.867927 -28.951163 9.471040 -6.277706 0.603725 -8.848185 0.000000 0.000000 0.000000 5.425661 44.874145 17.111710 -8.724485 -7.260672 0.262538 -9.774074 36.964344 12.211354 0.000000 0.000000 0.000000
16.634550 62.077054 380.733885 11.458845 -37.840019 -18.996945 -0.269030 -1.047553 23.390677 -0.593139 0.755769 0.346077 6.115609 32.060969 -2.941259 0.000000 0.000000 0.000000 -0.294519 6.929759 1.013115 0.530752 27.245581 -8.840820 -41.274778 8.398350 27.215149 54.610620 -12.011712 -2.056836 0.000000 0.000000 0.000000 0.000000 0.000000 0.000000 -25.255035 32.371344 12.654198 14.323484 3.745759 -1.983438 29.401810 -7.180286 -12.758146 -43.119518 3.185729 12.338594 0.000000 0.000000 0.000000 0.000000 0.000000 0.000000 -24.168394 52.002207 22.684654 -2.931045 -25.297628 8.948546 -9.182492 -12.157101 -8.083827 0.000000 0.000000 0.000000 7.508142 36.207197 18.088442 -5.494753 1.564389 -0.970521 -6.945779 42.940046 7.161980 0.000000 0.000000 0.000000
15.994717 62.738410 377.888881 11.970136 -35.494273 -17.907955 -0.556790 -1.176357 22.307458 -0.519794 0.569284 0.347290 5.024496 30.508202 -2.390093 0.000000 0.000000 0.000000 0.187068 6.270527 0.474320 -1.974784 26.041177 -6.982067 -43.964923 8.287849 27.193225 58.559111 -12.678104 -0.789042 0.000000 0.000000 0.000000 0.000000 0.000000 0.000000 -29.213792 35.048483 15.240198 17.136867 -3.012291 -1.562562 34.492243 -8.383148 -20.498074 -55.395885 -3.921617 20.264587 0.000000 0.000000 0.000000 0.000000 0.000000 0.000000 -19.033747 44.940940 20.021892 -2.585880 -19.718830 7.547605 -9.777997 -9.550039 -8.134913 0.000000 0.000000 0.000000 9.819468 27.832273 18.458525 -3.783496 7.741345 -2.133067 -2.793690 45.624105 -1.752800 0.000000 0.000000 0.000000
